<svg width="353" height="71" viewBox="0 0 353 71" fill="none" xmlns="http://www.w3.org/2000/svg">
<path d="M35.5 0L43.4702 24.5299H69.2625L48.3961 39.6902L56.3664 64.2201L35.5 49.0598L14.6336 64.2201L22.6039 39.6902L1.7375 24.5299H27.5298L35.5 0Z" fill="#FC8C09"/>
<path d="M106 0L113.858 24.5299H139.287L118.714 39.6902L126.572 64.2201L106 49.0598L85.4275 64.2201L93.2855 39.6902L72.713 24.5299H98.142L106 0Z" fill="#FC8C09"/>
<path d="M176.5 0L184.47 24.5299H210.263L189.396 39.6902L197.366 64.2201L176.5 49.0598L155.634 64.2201L163.604 39.6902L142.737 24.5299H168.53L176.5 0Z" fill="#FC8C09"/>
<path d="M247 0L254.858 24.5299H280.287L259.714 39.6902L267.572 64.2201L247 49.0598L226.428 64.2201L234.286 39.6902L213.713 24.5299H239.142L247 0Z" fill="#FC8C09"/>
<path d="M317.5 0L325.47 24.5299H351.263L330.396 39.6902L338.366 64.2201L317.5 49.0598L296.634 64.2201L304.604 39.6902L283.737 24.5299H309.53L317.5 0Z" fill="white"/>
</svg>
