<svg width="152" height="40" viewBox="0 0 152 40" fill="none" xmlns="http://www.w3.org/2000/svg">
<path d="M132 0H20C8.9543 0 0 8.9543 0 20C0 31.0457 8.9543 40 20 40H132C143.046 40 152 31.0457 152 20C152 8.9543 143.046 0 132 0Z" fill="#3A3B3C"/>
<path d="M19.284 26.3499L22.416 12.79H26.448L21.648 29.4199H16.776L12 12.79H16.176L19.284 26.3499ZM33.579 10C34.235 10 34.771 10.2099 35.187 10.6199C35.603 11.0199 35.811 11.5299 35.811 12.1399C35.811 12.7499 35.603 13.2599 35.187 13.6799C34.771 14.0799 34.235 14.29 33.579 14.29C32.915 14.29 32.371 14.0799 31.947 13.6799C31.531 13.2599 31.323 12.7499 31.323 12.1399C31.323 11.5299 31.531 11.0199 31.947 10.6199C32.371 10.2099 32.915 10 33.579 10ZM35.871 16.6799V26.8298H39.111V29.4199H28.467V26.8298H32.079V19.27H28.587V16.6799H35.871ZM45.761 24.1499C45.889 25.1899 46.229 25.9399 46.781 26.3999C47.333 26.8399 48.013 27.0698 48.821 27.0698C49.405 27.0698 49.969 26.97 50.513 26.78C51.057 26.59 51.581 26.33 52.085 26.01L53.609 28.0798C53.009 28.5898 52.281 29.0098 51.425 29.3398C50.577 29.6598 49.609 29.8298 48.521 29.8298C47.065 29.8298 45.845 29.54 44.861 28.96C43.877 28.38 43.137 27.5798 42.641 26.5598C42.145 25.5498 41.897 24.3798 41.897 23.0598C41.897 21.7998 42.137 20.6599 42.617 19.6399C43.097 18.6099 43.797 17.7899 44.717 17.1799C45.645 16.5599 46.777 16.26 48.113 16.26C49.329 16.26 50.381 16.52 51.269 17.04C52.165 17.56 52.857 18.3 53.345 19.28C53.841 20.26 54.089 21.4298 54.089 22.7998C54.089 23.0098 54.081 23.24 54.065 23.49C54.057 23.74 54.041 23.9599 54.017 24.1499H45.761ZM48.113 18.7998C47.433 18.7998 46.885 19.04 46.469 19.53C46.053 20.02 45.801 20.7999 45.713 21.8699H50.393C50.385 20.9399 50.205 20.1999 49.853 19.6399C49.501 19.0799 48.921 18.7998 48.113 18.7998ZM67.688 29.4199H63.5L62.408 20.8499L61.268 29.4199H57.152L55.268 16.6799H58.736L59.564 27.0598L60.908 18.28H64.1L65.3 27.0598L66.152 16.6799H69.5L67.688 29.4199ZM97.009 12.79L97.945 29.4199H94.513L94.309 22.2998C94.285 21.4198 94.277 20.66 94.285 20.01C94.301 19.36 94.329 18.7399 94.369 18.1499C94.409 17.5499 94.457 16.8799 94.513 16.1399L92.641 26.5898H89.665L87.649 16.1399C87.7131 16.8299 87.765 17.4899 87.805 18.0999C87.845 18.7099 87.869 19.35 87.877 20.02C87.893 20.7 87.893 21.4799 87.877 22.3599L87.757 29.4199H84.385L85.321 12.79H89.365L91.213 23.54L92.965 12.79H97.009ZM105.556 16.26C106.868 16.26 107.984 16.5399 108.904 17.0999C109.824 17.6599 110.528 18.44 111.016 19.46C111.504 20.47 111.748 21.65 111.748 23.01C111.748 25.14 111.204 26.81 110.116 28.02C109.028 29.22 107.508 29.8298 105.556 29.8298C103.604 29.8298 102.084 29.23 100.996 28.04C99.908 26.85 99.364 25.18 99.364 23.04C99.364 21.68 99.608 20.5 100.096 19.48C100.592 18.47 101.3 17.6799 102.22 17.1099C103.148 16.5399 104.26 16.26 105.556 16.26ZM105.556 19.0498C104.78 19.0498 104.204 19.37 103.828 20.01C103.46 20.64 103.276 21.65 103.276 23.04C103.276 24.44 103.46 25.4599 103.828 26.0999C104.204 26.7299 104.78 27.04 105.556 27.04C106.332 27.04 106.904 26.7299 107.272 26.0999C107.648 25.4599 107.836 24.44 107.836 23.01C107.836 21.64 107.648 20.63 107.272 20C106.904 19.37 106.332 19.0498 105.556 19.0498ZM114.547 29.4199V26.8799H116.227V19.2H114.547V16.6799H119.119L119.815 19.54C120.271 18.45 120.851 17.6299 121.555 17.0999C122.267 16.5599 123.135 16.29 124.159 16.29C124.591 16.29 124.975 16.3299 125.311 16.3999C125.647 16.4599 125.963 16.5599 126.259 16.6799L125.551 22H123.175V19.6499C122.455 19.7799 121.823 20.1698 121.279 20.8298C120.735 21.4798 120.315 22.28 120.019 23.23V26.8799H122.539V29.4199H114.547ZM132.105 24.1499C132.233 25.1899 132.573 25.9399 133.125 26.3999C133.677 26.8399 134.357 27.0698 135.165 27.0698C135.749 27.0698 136.313 26.97 136.857 26.78C137.401 26.59 137.925 26.33 138.429 26.01L139.953 28.0798C139.353 28.5898 138.625 29.0098 137.769 29.3398C136.921 29.6598 135.953 29.8298 134.865 29.8298C133.409 29.8298 132.189 29.54 131.205 28.96C130.221 28.38 129.481 27.5798 128.985 26.5598C128.489 25.5498 128.241 24.3798 128.241 23.0598C128.241 21.7998 128.481 20.6599 128.961 19.6399C129.441 18.6099 130.141 17.7899 131.061 17.1799C131.989 16.5599 133.121 16.26 134.457 16.26C135.673 16.26 136.725 16.52 137.613 17.04C138.509 17.56 139.201 18.3 139.689 19.28C140.185 20.26 140.433 21.4298 140.433 22.7998C140.433 23.0098 140.425 23.24 140.409 23.49C140.401 23.74 140.385 23.9599 140.361 24.1499H132.105ZM134.457 18.7998C133.777 18.7998 133.229 19.04 132.813 19.53C132.397 20.02 132.145 20.7999 132.057 21.8699H136.737C136.729 20.9399 136.549 20.1999 136.197 19.6399C135.845 19.0799 135.265 18.7998 134.457 18.7998Z" fill="white"/>
</svg>
